<svg xmlns="http://www.w3.org/2000/svg" width="180" height="180" viewBox="0 0 180 180">
  <path id="adobe-xd" d="M116.715,91.111c.074.963.074,1.926.074,2.815v12.667a8.489,8.489,0,0,1-.371,2.963c-.963,3.333-2.816,4.222-4.372,4.222-3.631,0-6.077-4.815-6.077-13.926,0-7.7,1.63-14.3,6.151-14.3C114.714,85.556,116.27,88.222,116.715,91.111ZM180,90h0a90.021,90.021,0,0,1-90.037,90h0A90.1,90.1,0,0,1,0,90H0A90.021,90.021,0,0,1,90.037,0h0A90.005,90.005,0,0,1,180,90ZM90.482,123.481,77.439,90.3,89.815,57.481H76.995L73.66,69.556c-.889,3.63-1.63,6.741-2.742,10.741H70.7c-1.112-3.7-1.927-7.185-3.038-10.593L63.8,57.481H50.391L62.248,89.7,49.872,123.481H62.618l3.557-11.926c.963-3.7,2.075-7.7,3.112-11.926h.222c1.186,4.222,2.223,7.926,3.557,11.778l4.224,12.148H90.482Zm39.572,0c-.222-4.37-.371-9.63-.371-14.222V55.7h-12.82V79.63h-.222c-1.186-2.741-3.853-4.815-8-4.815-8.152,0-15.414,8.148-15.414,24.815,0,13.407,4.669,24.667,14.9,24.667a11.727,11.727,0,0,0,10-6.148h.222l.667,5.407h11.042Z" fill="#da4b9a"/>
</svg>
