<svg xmlns="http://www.w3.org/2000/svg" width="180" height="180" viewBox="0 0 180 180">
  <g id="bootstrap" transform="translate(-6 -6)">
    <path id="Path_396" data-name="Path 396" d="M186,161a25,25,0,0,1-25,25H31A25,25,0,0,1,6,161V31A25,25,0,0,1,31,6H161a25,25,0,0,1,25,25Z" transform="translate(0 0)" fill="#673ab7"/>
    <path id="Path_397" data-name="Path 397" d="M83.285,65.736a18.643,18.643,0,0,0-10.6-7.31s3.863-1.462,7.347-6.915a24.02,24.02,0,0,0,3.143-12.565c0-8.5-2.954-15.015-8.862-19.479S61.735,12,50.411,12H15v94.829H54.5c10.718-.079,18.785-2.489,24.277-7.112,5.454-4.7,8.181-11.656,8.181-20.941A22.339,22.339,0,0,0,83.285,65.736ZM37.724,27.8h16.1A10.642,10.642,0,0,1,64.235,38.671,10.642,10.642,0,0,1,53.82,49.537h-16.1ZM56.66,91.024H37.724V67.317H56.66a11.864,11.864,0,0,1,0,23.707Z" transform="translate(45.41 36.159)" fill="#fff"/>
  </g>
</svg>
