<svg xmlns="http://www.w3.org/2000/svg" xmlns:xlink="http://www.w3.org/1999/xlink" width="181" height="181" viewBox="0 0 181 181">
  <defs>
    <linearGradient id="linear-gradient" x1="-0.087" y1="0.237" x2="0.662" y2="0.763" gradientUnits="objectBoundingBox">
      <stop offset="0" stop-color="#010101" stop-opacity="0.102"/>
      <stop offset="1" stop-color="#010101" stop-opacity="0"/>
    </linearGradient>
    <linearGradient id="linear-gradient-2" x1="0.084" y1="0.306" x2="0.916" y2="0.694" gradientUnits="objectBoundingBox">
      <stop offset="0" stop-color="#fff" stop-opacity="0.2"/>
      <stop offset="1" stop-color="#fff" stop-opacity="0"/>
    </linearGradient>
  </defs>
  <g id="git" transform="translate(0)">
    <path id="Path_387" data-name="Path 387" d="M177.693,82.446c-.007,0-.007,0-.007,0L98.505,3.21a11.583,11.583,0,0,0-16,0L3.307,82.446a11.325,11.325,0,0,0,.007,16l79.18,79.232a11.308,11.308,0,0,0,16,0l79.188-79.235a11.325,11.325,0,0,0,.007-16Z" transform="translate(0 0)" fill="#ef473b"/>
    <path id="Path_388" data-name="Path 388" d="M178.433,15.335,98.414,92.465a11.736,11.736,0,0,1-16.172,0L2.23,15.335a10.992,10.992,0,0,1-2.2-3.068A10.7,10.7,0,0,0,3.138,17.98L82.325,94.312a11.616,11.616,0,0,0,16.005,0L177.524,17.98a10.7,10.7,0,0,0,3.112-5.713A11.013,11.013,0,0,1,178.433,15.335Z" transform="translate(0.169 83.49)" fill="#010101" opacity="0.1"/>
    <path id="Path_389" data-name="Path 389" d="M74.458,54.927a14.374,14.374,0,0,0-7.427,2.109L50.552,40.557a14.374,14.374,0,0,0,2.109-7.427A14.548,14.548,0,0,0,38.13,18.6a14.367,14.367,0,0,0-7.337,2.06L12.965,2.83,7.83,7.968,25.657,25.8A14.366,14.366,0,0,0,23.6,33.13,14.517,14.517,0,0,0,34.5,47.146V91.771a14.531,14.531,0,1,0,7.266,0V47.145a14.373,14.373,0,0,0,3.61-1.493L61.936,62.215a14.354,14.354,0,0,0-2.009,7.243A14.531,14.531,0,1,0,74.458,54.927Z" transform="translate(53.101 17.729)" fill="#fff"/>
    <path id="Path_390" data-name="Path 390" d="M3.307,81.244,82.5,4.906a11.9,11.9,0,0,1,16,0l79.18,76.331s0,0,.007,0a10.66,10.66,0,0,1,3.215,6.8c.026-.3.092-.6.092-.909a10.67,10.67,0,0,0-3.307-7.707c-.007,0-.007,0-.007,0L98.505,3.093a11.9,11.9,0,0,0-16,0L3.307,79.427A10.671,10.671,0,0,0,0,87.135c0,.308.066.6.092.908A10.663,10.663,0,0,1,3.307,81.244Z" transform="translate(0 0)" fill="#fff" opacity="0.2"/>
    <path id="Path_391" data-name="Path 391" d="M67.9,41.933a14.386,14.386,0,0,1,3.278,9.079,14.531,14.531,0,0,1-29.062,0,14.358,14.358,0,0,1,2.009-7.243L27.563,27.206a14.371,14.371,0,0,1-3.61,1.493V73.325a14.495,14.495,0,1,1-13.281,24.8l27.114,27.114L94.479,68.51ZM32.742,22.111,49.221,38.59a14.176,14.176,0,0,1,16.508,1.17L31.743,5.774l-.018.015a14.18,14.18,0,0,1,1.017,16.323Z" transform="translate(73.493 42.801)" fill="url(#linear-gradient)"/>
    <path id="Path_392" data-name="Path 392" d="M177.693,82.446c-.007,0-.007,0-.007,0L98.505,3.21a11.583,11.583,0,0,0-16,0L3.307,82.446a11.325,11.325,0,0,0,.007,16l79.18,79.232a11.308,11.308,0,0,0,16,0l79.188-79.235a11.325,11.325,0,0,0,.007-16Z" transform="translate(0 0)" fill="url(#linear-gradient-2)"/>
  </g>
</svg>
