<svg id="github" xmlns="http://www.w3.org/2000/svg" width="181" height="181" viewBox="0 0 181 181">
  <g id="Group_650" data-name="Group 650" transform="translate(0 0)">
    <path id="Path_386" data-name="Path 386" d="M90.489,5.329C40.521,5.329,0,46.874,0,98.123c0,40.99,25.928,75.765,61.9,88.045,4.525.855,6.177-2.01,6.177-4.471,0-2.207-.079-8.041-.124-15.781-25.17,5.6-30.487-12.443-30.487-12.443C33.361,142.752,27.421,139.9,27.421,139.9c-8.224-5.753.611-5.638.611-5.638,9.084.658,13.858,9.566,13.858,9.566,8.077,14.176,21.188,10.086,26.347,7.706.814-6,3.156-10.086,5.747-12.408-20.091-2.345-41.223-10.305-41.223-45.854a36.4,36.4,0,0,1,9.321-24.908c-.939-2.345-4.039-11.784.882-24.55,0,0,7.6-2.5,24.888,9.508a83.709,83.709,0,0,1,45.318.012c17.274-12,24.865-9.508,24.865-9.508,4.932,12.778,1.833,22.2.9,24.55a36.327,36.327,0,0,1,9.3,24.908c0,35.641-21.154,43.485-41.313,45.785,3.247,2.865,6.143,8.526,6.143,17.179,0,12.408-.113,22.413-.113,25.451,0,2.484,1.629,5.372,6.222,4.459C155.094,173.864,181,139.1,181,98.123,181,46.874,140.479,5.329,90.489,5.329Z" transform="translate(0 -5.329)"/>
  </g>
</svg>
