<svg id="html-5" xmlns="http://www.w3.org/2000/svg" width="180.724" height="180.725" viewBox="0 0 180.724 180.725">
  <path id="Path_378" data-name="Path 378" d="M180.724,90.362A90.362,90.362,0,1,1,90.362,0,90.213,90.213,0,0,1,180.724,90.362Z" transform="translate(0)" fill="#f2f2f2"/>
  <path id="Path_379" data-name="Path 379" d="M203.321,119.474,192.9,235.98a93.964,93.964,0,0,1-111.353.309L71.105,119.474Z" transform="translate(-46.662 -73.682)" fill="#e64c18"/>
  <path id="Path_380" data-name="Path 380" d="M256.546,151.249V272.566l41.908-11.831L307.8,151.249Z" transform="translate(-165.019 -94.534)" fill="#f36518"/>
  <path id="Path_381" data-name="Path 381" d="M140.9,195.528l4.11,48.663h54.623l-1.787,20.1-17.192,4.656-17.906-5.016L162.3,251.4H145.622l2.088,24.709,32.947,9.311,32.946-9.311,4.083-48.347H160.162L158.734,212h0l60.312-.316,1.364-16.159Z" transform="translate(-90.097 -123.592)" fill="#fff"/>
  <path id="Path_382" data-name="Path 382" d="M121.722,16.8v8.36h-7.988V16.8H106.3V40.761h7.431v-7.8h7.988v7.8h7.431V16.8Z" transform="translate(-68.634 -11.022)"/>
  <path id="Path_383" data-name="Path 383" d="M205.9,16.8H183.045v8.36h7.431V40.948h7.989V25.156H205.9Z" transform="translate(-118.182 -11.022)"/>
  <path id="Path_384" data-name="Path 384" d="M358.033,33.685V17.337h-7.989V41.3h19.507V33.685Z" transform="translate(-226.084 -11.377)"/>
  <path id="Path_385" data-name="Path 385" d="M278.384,17.337l-5.573,8.546-5.574-8.546h-7.988V41.3h7.988V29.412l5.574,8.546,5.573-8.546V41.3h7.989V17.337Z" transform="translate(-167.304 -11.377)"/>
</svg>
