<svg xmlns="http://www.w3.org/2000/svg" width="180" height="180" viewBox="0 0 180 180">
  <g id="js" transform="translate(-0.167)">
    <g id="Group_642" data-name="Group 642" transform="translate(0 0)">
      <g id="Group_641" data-name="Group 641">
        <circle id="Ellipse_1" data-name="Ellipse 1" cx="90" cy="90" r="90" transform="translate(0.167)" fill="#f0db4f"/>
      </g>
    </g>
    <g id="Layer_1_1_" transform="translate(40.024 53.832)">
      <g id="Group_644" data-name="Group 644">
        <g id="Group_643" data-name="Group 643">
          <path id="Path_368" data-name="Path 368" d="M57.6,44.6H73.326V88.877c0,19.88-9.578,26.928-24.759,26.928A38.891,38.891,0,0,1,37,114.179l1.807-12.831a26.492,26.492,0,0,0,8.133,1.265c6.687,0,10.843-3.072,10.843-13.735L57.6,44.6Z" transform="translate(-37 -43.516)" fill="#323330"/>
          <path id="Path_369" data-name="Path 369" d="M66.253,98.94a40.327,40.327,0,0,0,17.53,4.337c7.229,0,11.024-3.072,11.024-7.771,0-4.337-3.253-6.868-11.747-9.759C71.494,81.591,63.723,75.085,63.723,64.783,63.723,53.036,73.843,44,90.289,44c7.952,0,13.735,1.627,17.892,3.614l-3.614,12.651a34.012,34.012,0,0,0-14.458-3.253c-6.868,0-10.121,3.253-10.121,6.687,0,4.518,3.8,6.506,13.012,9.94,12.289,4.518,18.072,11.024,18.072,20.964,0,11.747-8.855,21.687-28.193,21.687-7.952,0-15.9-2.169-19.88-4.337Z" transform="translate(-16.012 -44)" fill="#323330"/>
        </g>
      </g>
    </g>
  </g>
</svg>
