<svg xmlns="http://www.w3.org/2000/svg" width="180" height="180" viewBox="0 0 180 180">
  <path id="photoshop" d="M90,0h0A90,90,0,0,0,0,90H0a90,90,0,0,0,90,90h0a90,90,0,0,0,90-90h0A90.1,90.1,0,0,0,90,0Zm2.667,92c-4.148,4.3-10.741,6.3-16.074,6.3H74.074v24.593H61.259V57.778a64.964,64.964,0,0,1,13.407-1.259c7.63,0,13.63,1.111,17.926,5.111,3.926,3.407,5.7,8.889,5.7,14.519C98.3,83.259,96.148,88.222,92.667,92Zm18.889,31.407c-4,0-8.741-1.111-10.963-2.741l2.37-9.407a17.847,17.847,0,0,0,8.593,2.519c3.333,0,5.185-1.481,5.185-4.3,0-2.444-1.407-4-5.556-6.444-7.852-4.37-9.7-9.407-9.7-13.778,0-8.593,6.148-15.111,15.778-15.111a22.388,22.388,0,0,1,9.7,2.148L124.741,85.7a13.034,13.034,0,0,0-6.667-1.926c-3.259,0-4.815,1.926-4.815,4.148,0,2.148,1.111,3.333,5.556,6,7.037,4,9.7,9.037,9.7,14.519C128.519,118.148,121.481,123.407,111.556,123.407Zm-26-46.222c0,6.148-2.963,10.741-9.407,10.741a5.945,5.945,0,0,1-2.074-.222v-20.3a9.4,9.4,0,0,1,3.111-.519C83.185,66.889,85.556,71.407,85.556,77.185Z" fill="#00b4db"/>
</svg>
