<svg id="react" xmlns="http://www.w3.org/2000/svg" width="199.502" height="181" viewBox="0 0 199.502 181">
  <circle id="Ellipse_3" data-name="Ellipse 3" cx="16.584" cy="16.584" r="16.584" transform="translate(83.204 73.71)" fill="#00d8ff"/>
  <g id="Group_651" data-name="Group 651" transform="translate(0 52.653)">
    <path id="Path_393" data-name="Path 393" d="M118.287,261.251c-25.035,0-46.91-2.742-63.281-7.962-10.618-3.37-19.638-7.862-26.065-12.983-6.818-5.418-10.44-11.331-10.44-17.046,0-10.968,12.926-21.7,34.624-28.708,17.756-5.748,40.909-8.953,65.128-8.953,23.793,0,46.626,3.105,64.275,8.787,10.334,3.3,19.034,7.6,25.213,12.355C214.451,211.962,218,217.677,218,223.26c0,11.4-14.453,22.927-37.748,30.1C163.777,258.443,141.76,261.251,118.287,261.251Zm0-67.722c-22.976,0-45.7,3.105-62.322,8.49-19.957,6.475-28.906,15.328-28.906,21.242,0,6.145,9.624,15.824,30.717,22.53,15.483,4.922,36.435,7.532,60.511,7.532,22.585,0,43.643-2.643,59.3-7.5,21.91-6.772,31.925-16.452,31.925-22.563,0-3.138-2.557-6.838-7.209-10.439-5.362-4.162-13.175-7.962-22.514-10.968C163,196.5,141.156,193.528,118.287,193.528Z" transform="translate(-18.5 -185.6)" fill="#00d8ff"/>
  </g>
  <g id="Group_652" data-name="Group 652" transform="translate(42.845)">
    <path id="Path_394" data-name="Path 394" d="M146.465,231.113a16.222,16.222,0,0,1-8.853-2.39c-9.481-6.011-12.785-23.319-8.787-46.313,3.271-18.865,11.265-41.026,22.53-62.426,11.067-21,24.347-39.469,37.462-51.961,7.664-7.314,15.427-12.674,22.431-15.5,7.631-3.078,14.238-3.078,19.061-.036,9.878,6.228,13.148,25.347,8.523,49.825-3.27,17.381-11.067,38.346-21.968,59.095-11.628,22.088-24.182,39.9-36.306,51.527-7.862,7.532-15.956,13.036-23.356,15.9A29.727,29.727,0,0,1,146.465,231.113Zm8.292-108.956,3.436,2.173c-10.67,20.278-18.566,42.04-21.605,59.71-3.667,21.183-.132,33.929,4.955,37.151a9.089,9.089,0,0,0,4.922,1.231c6.574,0,16.914-4.562,28.873-16,11.463-10.972,23.455-28.063,34.654-49.318,10.505-19.952,17.971-40.012,21.077-56.488,4.328-23.066.595-37.188-4.724-40.555-2.709-1.7-7.1-1.485-12.388.652-6.112,2.462-13.016,7.278-19.953,13.9-12.454,11.877-25.173,29.547-35.81,49.753Z" transform="translate(-127.159 -50.212)" fill="#00d8ff"/>
  </g>
  <g id="Group_653" data-name="Group 653" transform="translate(42.918 0.16)">
    <path id="Path_395" data-name="Path 395" d="M221.8,231.536c-8.986,0-20.383-5.939-32.275-17.164-13.28-12.529-26.792-31.178-38.09-52.579h0c-11.1-21-19.028-42.838-22.365-61.559-1.949-10.936-2.312-20.966-1.057-29.041,1.387-8.8,4.658-15.064,9.514-18.142,9.845-6.265,26.593.181,43.64,16.8,12.091,11.769,24.776,29.657,35.711,50.37,11.661,22.089,19.491,42.91,22.6,60.219,2.015,11.225,2.346,21.654.925,30.128-1.52,9.017-4.955,15.426-9.911,18.576A15.812,15.812,0,0,1,221.8,231.536Zm-63.494-74.088c10.7,20.278,23.984,38.637,36.4,50.334,14.9,14.05,26.726,17.092,31.846,13.833,5.319-3.368,9.217-17.164,5.187-39.47-2.973-16.367-10.472-36.284-21.7-57.54-10.538-19.952-22.662-37.08-34.125-48.233-16.055-15.643-29.071-19.156-34.39-15.788-2.709,1.7-4.724,6.011-5.682,12.095-1.09,7.025-.76,16.005,1.024,25.891,3.171,17.78,10.77,38.674,21.44,58.879Z" transform="translate(-127.284 -50.696)" fill="#00d8ff"/>
  </g>
</svg>
