<svg xmlns="http://www.w3.org/2000/svg" width="181" height="180" viewBox="0 0 181 180">
  <g id="sass" transform="translate(0.118)">
    <g id="Group_648" data-name="Group 648" transform="translate(0 0)">
      <g id="Group_647" data-name="Group 647">
        <g id="Group_646" data-name="Group 646">
          <g id="Group_645" data-name="Group 645">
            <ellipse id="Ellipse_2" data-name="Ellipse 2" cx="90.5" cy="90" rx="90.5" ry="90" transform="translate(-0.118)" fill="#c69"/>
          </g>
        </g>
      </g>
    </g>
    <path id="Path_370" data-name="Path 370" d="M132.966,48.158c-1.084-4.337-4.157-7.952-8.855-10.482-9.217-4.88-24.036-5.06-37.591-.181-8.133,2.892-23.494,9.4-35.061,20.06C39.893,68.4,38.086,77.977,38.99,81.772,40.978,92.254,52,99.664,60.677,105.809a68.343,68.343,0,0,1,6.145,4.518c-4.88,2.53-18.072,9.94-21.687,17.711-2.711,6.145-1.446,10.663-.361,12.651a8.506,8.506,0,0,0,4.7,4.7,20.305,20.305,0,0,0,5.783.723,24.423,24.423,0,0,0,20.06-11.2c4.7-7.048,5.06-16.446,2.892-22.229a30.053,30.053,0,0,1,9.94-.361c7.048.9,10.482,3.614,12.109,5.783a8.686,8.686,0,0,1,1.988,6.145c-.361,2.711-2.53,4.337-3.614,5.06-.9.542-1.627,1.084-1.446,2.169.361,1.446,1.807,1.265,2.349,1.265,1.627-.361,7.41-3.253,7.771-9.759a15.4,15.4,0,0,0-4.518-11.2c-3.976-4.157-9.94-6.325-16.807-6.145a35.015,35.015,0,0,0-11.2,1.446l-.181-.181c-2.53-2.711-5.964-5.241-9.036-7.771C58.327,93.7,51.64,88.459,52,80.688c.542-9.759,10.121-19.338,28.735-28.554C97.183,44,110.557,43.64,117.6,46.17c2.892,1.084,4.88,2.53,5.6,4.157,1.446,3.072.9,7.048-1.627,11.386-4.157,7.229-14.639,16.265-30.723,18.072-9.759,1.084-13.916-3.253-14.1-3.434-1.084-1.265-1.807-1.988-3.072-1.265-1.446.723-.723,2.711-.361,3.434.723,1.988,3.8,5.422,9.036,7.229,4.157,1.446,14.819,2.349,28.012-2.711C125.557,76.893,136.039,60.628,132.966,48.158Zm-62.35,76.989c-.181.361-.181.723-.361,1.084a2.569,2.569,0,0,0-.361,1.084,15.727,15.727,0,0,1-3.253,4.7c-4.157,4.518-9.759,5.783-11.566,4.7a2.433,2.433,0,0,1-.9-1.627c-.361-2.169.9-6.506,4.7-10.3a50.757,50.757,0,0,1,12.289-8.855A19.668,19.668,0,0,1,70.616,125.146Z" transform="translate(6.114 1.698)" fill="#fff"/>
  </g>
</svg>
